<svg width="20" height="20" viewBox="0 0 20 20" fill="none" xmlns="http://www.w3.org/2000/svg">
<path fill-rule="evenodd" clip-rule="evenodd" d="M7.4382 13.6584H11.9266C12.2649 13.6584 12.5455 13.3751 12.5455 13.0334C12.5455 12.6917 12.2649 12.4167 11.9266 12.4167H7.4382C7.09992 12.4167 6.81939 12.6917 6.81939 13.0334C6.81939 13.3751 7.09992 13.6584 7.4382 13.6584ZM10.227 8.25008H7.4382C7.09992 8.25008 6.81939 8.53341 6.81939 8.87508C6.81939 9.21675 7.09992 9.49175 7.4382 9.49175H10.227C10.5653 9.49175 10.8458 9.21675 10.8458 8.87508C10.8458 8.53341 10.5653 8.25008 10.227 8.25008ZM16.1151 7.52142C16.3091 7.51919 16.5203 7.51675 16.7121 7.51675C16.9184 7.51675 17.0834 7.68341 17.0834 7.89175V14.5917C17.0834 16.6584 15.425 18.3334 13.3788 18.3334H6.81114C4.66592 18.3334 2.91675 16.5751 2.91675 14.4084V5.42508C2.91675 3.35842 4.58341 1.66675 6.63787 1.66675H11.0438C11.2583 1.66675 11.4233 1.84175 11.4233 2.05008V4.73341C11.4233 6.25842 12.6692 7.50841 14.1791 7.51675C14.5318 7.51675 14.8427 7.51938 15.1148 7.52169C15.3265 7.52349 15.5147 7.52508 15.6808 7.52508C15.7982 7.52508 15.9505 7.52332 16.1151 7.52142ZM16.3427 6.30508C15.6644 6.30758 14.8649 6.30508 14.2899 6.29925C13.3773 6.29925 12.6257 5.54008 12.6257 4.61841V2.42175C12.6257 2.06258 13.0572 1.88425 13.3039 2.14341C13.7509 2.6129 14.3655 3.25847 14.977 3.90087C15.5855 4.54011 16.1911 5.17621 16.6257 5.63258C16.8666 5.88508 16.69 6.30425 16.3427 6.30508Z" fill="#DB00FF"/>
</svg>
